# xmcd
#
# Track frame offsets:
#	150
#	24030
#	40862
#	66230
#	85592
#	104467
#	130315
#	150237
#	168765
#	193557
#
# Disc length: 2952 seconds
#
# Revision: 1
# Processed by: cddbd v1.5.2PL0 Copyright (c) Steve Scherf et al.
# Submitted via: EZCDAudioConverter 8.0.2.1
#
DISCID=6c0b860a
DTITLE=Như Quỳnh - 4
DYEAR=1996
DGENRE=Miscellaneous
TTITLE0=Chuyện tình hoa trắng
TTITLE1=Anh cứ hẹn
TTITLE2=Chuyện hoa sim
TTITLE3=Người tình mùa đông
TTITLE4=Ra riêng anh cưới em
TTITLE5=Chuyện giàn thiên lý
TTITLE6=Rừng lá thay chưa
TTITLE7=Tình thắm duyên quê
TTITLE8=Giăng câu
TTITLE9=Trái tim mùa đông
EXTD=
EXTT0=
EXTT1=
EXTT2=
EXTT3=
EXTT4=
EXTT5=
EXTT6=
EXTT7=
EXTT8=
EXTT9=
PLAYORDER=
